<mxfile host="app.diagrams.net" modified="2020-11-16T05:19:40.791Z" agent="5.0 (Macintosh; Intel Mac OS X 10_15_7) AppleWebKit/537.36 (KHTML, like Gecko) Chrome/86.0.4240.193 Safari/537.36" etag="caMFIOW1LLJIOQ4_JIJY" version="13.9.9" type="github">
  <diagram id="lRm6O7h3iOEfPQX9_SeQ" name="Page-1">
    <mxGraphModel dx="1406" dy="694" grid="1" gridSize="10" guides="1" tooltips="1" connect="1" arrows="1" fold="1" page="1" pageScale="1" pageWidth="827" pageHeight="1169" math="0" shadow="0">
      <root>
        <mxCell id="0" />
        <mxCell id="1" parent="0" />
        <mxCell id="fKPxFeMQNm4_caw4wuk1-1" value="&lt;p style=&quot;margin: 0px ; margin-top: 4px ; text-align: center&quot;&gt;&lt;i&gt;&amp;lt;&amp;lt;Interface&amp;gt;&amp;gt;&lt;/i&gt;&lt;br&gt;&lt;b&gt;Request&lt;/b&gt;&lt;/p&gt;&lt;hr size=&quot;1&quot;&gt;&lt;p style=&quot;margin: 0px ; margin-left: 4px&quot;&gt;+ request(): void&lt;br&gt;&lt;/p&gt;" style="verticalAlign=top;align=left;overflow=fill;fontSize=12;fontFamily=Helvetica;html=1;" vertex="1" parent="1">
          <mxGeometry x="270" y="50" width="190" height="90" as="geometry" />
        </mxCell>
        <mxCell id="fKPxFeMQNm4_caw4wuk1-7" style="rounded=0;orthogonalLoop=1;jettySize=auto;html=1;exitX=0.5;exitY=0;exitDx=0;exitDy=0;entryX=0.311;entryY=1;entryDx=0;entryDy=0;entryPerimeter=0;dashed=1;endArrow=block;endFill=0;strokeWidth=1;endSize=9;" edge="1" parent="1" source="fKPxFeMQNm4_caw4wuk1-3" target="fKPxFeMQNm4_caw4wuk1-1">
          <mxGeometry relative="1" as="geometry" />
        </mxCell>
        <mxCell id="fKPxFeMQNm4_caw4wuk1-3" value="RealClass" style="swimlane;fontStyle=1;align=center;verticalAlign=top;childLayout=stackLayout;horizontal=1;startSize=26;horizontalStack=0;resizeParent=1;resizeParentMax=0;resizeLast=0;collapsible=1;marginBottom=0;" vertex="1" parent="1">
          <mxGeometry x="90" y="260" width="130" height="60" as="geometry" />
        </mxCell>
        <mxCell id="fKPxFeMQNm4_caw4wuk1-5" value="" style="line;strokeWidth=1;fillColor=none;align=left;verticalAlign=middle;spacingTop=-1;spacingLeft=3;spacingRight=3;rotatable=0;labelPosition=right;points=[];portConstraint=eastwest;" vertex="1" parent="fKPxFeMQNm4_caw4wuk1-3">
          <mxGeometry y="26" width="130" height="8" as="geometry" />
        </mxCell>
        <mxCell id="fKPxFeMQNm4_caw4wuk1-6" value="+ request(type): void" style="text;strokeColor=none;fillColor=none;align=left;verticalAlign=top;spacingLeft=4;spacingRight=4;overflow=hidden;rotatable=0;points=[[0,0.5],[1,0.5]];portConstraint=eastwest;" vertex="1" parent="fKPxFeMQNm4_caw4wuk1-3">
          <mxGeometry y="34" width="130" height="26" as="geometry" />
        </mxCell>
        <mxCell id="fKPxFeMQNm4_caw4wuk1-16" style="edgeStyle=none;rounded=0;orthogonalLoop=1;jettySize=auto;html=1;exitX=0.5;exitY=0;exitDx=0;exitDy=0;dashed=1;endArrow=block;endFill=0;endSize=9;strokeWidth=1;" edge="1" parent="1" source="fKPxFeMQNm4_caw4wuk1-8" target="fKPxFeMQNm4_caw4wuk1-1">
          <mxGeometry relative="1" as="geometry" />
        </mxCell>
        <mxCell id="fKPxFeMQNm4_caw4wuk1-8" value="Proxy" style="swimlane;fontStyle=1;align=center;verticalAlign=top;childLayout=stackLayout;horizontal=1;startSize=26;horizontalStack=0;resizeParent=1;resizeParentMax=0;resizeLast=0;collapsible=1;marginBottom=0;" vertex="1" parent="1">
          <mxGeometry x="340" y="260" width="170" height="138" as="geometry" />
        </mxCell>
        <mxCell id="fKPxFeMQNm4_caw4wuk1-9" value="- realClass: RealClass" style="text;strokeColor=none;fillColor=none;align=left;verticalAlign=top;spacingLeft=4;spacingRight=4;overflow=hidden;rotatable=0;points=[[0,0.5],[1,0.5]];portConstraint=eastwest;" vertex="1" parent="fKPxFeMQNm4_caw4wuk1-8">
          <mxGeometry y="26" width="170" height="26" as="geometry" />
        </mxCell>
        <mxCell id="fKPxFeMQNm4_caw4wuk1-10" value="" style="line;strokeWidth=1;fillColor=none;align=left;verticalAlign=middle;spacingTop=-1;spacingLeft=3;spacingRight=3;rotatable=0;labelPosition=right;points=[];portConstraint=eastwest;" vertex="1" parent="fKPxFeMQNm4_caw4wuk1-8">
          <mxGeometry y="52" width="170" height="8" as="geometry" />
        </mxCell>
        <mxCell id="fKPxFeMQNm4_caw4wuk1-11" value="+ preRequest(type): void" style="text;strokeColor=none;fillColor=none;align=left;verticalAlign=top;spacingLeft=4;spacingRight=4;overflow=hidden;rotatable=0;points=[[0,0.5],[1,0.5]];portConstraint=eastwest;" vertex="1" parent="fKPxFeMQNm4_caw4wuk1-8">
          <mxGeometry y="60" width="170" height="26" as="geometry" />
        </mxCell>
        <mxCell id="fKPxFeMQNm4_caw4wuk1-12" value="+ request(type): void" style="text;strokeColor=none;fillColor=none;align=left;verticalAlign=top;spacingLeft=4;spacingRight=4;overflow=hidden;rotatable=0;points=[[0,0.5],[1,0.5]];portConstraint=eastwest;" vertex="1" parent="fKPxFeMQNm4_caw4wuk1-8">
          <mxGeometry y="86" width="170" height="26" as="geometry" />
        </mxCell>
        <mxCell id="fKPxFeMQNm4_caw4wuk1-15" value="+ postRequest(type): void" style="text;strokeColor=none;fillColor=none;align=left;verticalAlign=top;spacingLeft=4;spacingRight=4;overflow=hidden;rotatable=0;points=[[0,0.5],[1,0.5]];portConstraint=eastwest;" vertex="1" parent="fKPxFeMQNm4_caw4wuk1-8">
          <mxGeometry y="112" width="170" height="26" as="geometry" />
        </mxCell>
        <mxCell id="fKPxFeMQNm4_caw4wuk1-17" style="edgeStyle=none;rounded=0;orthogonalLoop=1;jettySize=auto;html=1;exitX=1;exitY=0.5;exitDx=0;exitDy=0;entryX=0;entryY=0;entryDx=0;entryDy=0;entryPerimeter=0;endArrow=diamond;endFill=0;endSize=9;strokeWidth=1;" edge="1" parent="1" source="fKPxFeMQNm4_caw4wuk1-6" target="fKPxFeMQNm4_caw4wuk1-11">
          <mxGeometry relative="1" as="geometry" />
        </mxCell>
        <mxCell id="fKPxFeMQNm4_caw4wuk1-22" style="edgeStyle=none;rounded=0;orthogonalLoop=1;jettySize=auto;html=1;exitX=0;exitY=0.5;exitDx=0;exitDy=0;endArrow=open;endFill=0;endSize=9;strokeWidth=1;dashed=1;" edge="1" parent="1" source="fKPxFeMQNm4_caw4wuk1-18" target="fKPxFeMQNm4_caw4wuk1-1">
          <mxGeometry relative="1" as="geometry" />
        </mxCell>
        <mxCell id="fKPxFeMQNm4_caw4wuk1-18" value="Client" style="swimlane;fontStyle=1;align=center;verticalAlign=top;childLayout=stackLayout;horizontal=1;startSize=26;horizontalStack=0;resizeParent=1;resizeParentMax=0;resizeLast=0;collapsible=1;marginBottom=0;" vertex="1" parent="1">
          <mxGeometry x="600" y="70" width="160" height="60" as="geometry" />
        </mxCell>
        <mxCell id="fKPxFeMQNm4_caw4wuk1-20" value="" style="line;strokeWidth=1;fillColor=none;align=left;verticalAlign=middle;spacingTop=-1;spacingLeft=3;spacingRight=3;rotatable=0;labelPosition=right;points=[];portConstraint=eastwest;" vertex="1" parent="fKPxFeMQNm4_caw4wuk1-18">
          <mxGeometry y="26" width="160" height="8" as="geometry" />
        </mxCell>
        <mxCell id="fKPxFeMQNm4_caw4wuk1-21" value="+main(String[] args):void" style="text;strokeColor=none;fillColor=none;align=left;verticalAlign=top;spacingLeft=4;spacingRight=4;overflow=hidden;rotatable=0;points=[[0,0.5],[1,0.5]];portConstraint=eastwest;" vertex="1" parent="fKPxFeMQNm4_caw4wuk1-18">
          <mxGeometry y="34" width="160" height="26" as="geometry" />
        </mxCell>
      </root>
    </mxGraphModel>
  </diagram>
</mxfile>
